<?xml version="1.0" encoding="utf-8"?>
<!-- Generator: Adobe Illustrator 27.3.1, SVG Export Plug-In . SVG Version: 6.00 Build 0)  -->
<svg version="1.1" id="Layer_1" xmlns="http://www.w3.org/2000/svg" xmlns:xlink="http://www.w3.org/1999/xlink" x="0px" y="0px"
	 viewBox="0 0 853.5 275.7" style="enable-background:new 0 0 853.5 275.7;" xml:space="preserve">
<style type="text/css">
	.st0{fill:#FFFFFF;}
	.st1{enable-background:new    ;}
</style>
<g>
	<g>
		<path class="st0" d="M250.5,89.5h-37c-2.4-3.9-5.1-7.6-8.1-11.1c-13.9-16.3-33.5-27.7-55.7-31c-4.5-0.7-9.1-1-13.8-1
			c-13,0-25.4,2.7-36.7,7.7c-0.6,0.2-1.1,0.5-1.6,0.7V160c0,0.1,0,0.3,0,0.4c0.1,6.1,3,11.5,7.3,15.2c3.5,2.9,8,4.6,12.8,4.6H198
			c0,0-5.2,9.5-21.6,20.3l0,0c-10.7,7.3-23.6,11.6-37.5,11.6H131c-26.9,0-50.1-16-60.5-39c0-0.1-0.1-0.1-0.1-0.1
			c-1.8-4-3.1-8.2-3.8-12.5c-0.6-3.3-0.9-6.7-0.9-10.1c-0.1-14.8-0.4-48.4-0.7-75.2c-0.1-7.1-0.1-13.7-0.2-19.4
			c0.2-3.6,0.4-6.6,0.6-9.4c0.2-3.3,0.6-6.2,1.3-9.5c2.1-3.8,6.5-6.5,11.1-8.9s9.3-4.6,14.1-6.4l5.7-2c12.1-3.9,24.9-6,38.3-6
			c15.5,0,30.3,2.8,44,8c9,3.4,17.6,7.9,25.5,13.2c2.8,1.9,5.5,3.9,8.1,6C229.6,53.5,242.4,70.3,250.5,89.5z"/>
		<path class="st0" d="M260.2,137.8c0,6.4-0.5,12.7-1.4,18.9c-1.5,9.6-4,18.8-7.5,27.6c-5.7,14.1-13.9,27-24.1,38
			c-22.7,24.5-55.1,39.8-91.2,39.8c-63.5,0-115.9-47.6-123.3-109.1c0-0.1,0-0.1,0-0.2c-0.6-4.9-0.9-10-0.9-15.1v-9.9
			c0-10.1,1.8-19.8,5.2-28.7c2.8-10.2,12-26.5,12-26.5v0.1c2-4.3,4.5-8.3,7.4-12c3.3-4.3,7.1-8.2,11.4-11.5v111.2h0.1v0.8
			c0,0.1,0,0.1,0,0.2c7.4,27.6,27.4,50,53.3,60.8c10.8,4.5,22.6,6.9,34.9,6.9c12.4,0,24.2-2.5,34.9-6.9
			c27.5-11.4,48.2-35.8,54.5-65.6h-71.8v-30.8h106C260,129.8,260.2,133.7,260.2,137.8z"/>
	</g>
	<g>
		<path class="st0" d="M310.4,110.6h26.7v15.7H290V42.7h20.4V110.6z"/>
		<path class="st0" d="M367.8,121.7c-6.6-3.7-11.8-8.8-15.6-15.3c-3.9-6.6-5.8-13.9-5.8-22.1s1.9-15.5,5.8-22s9.1-11.6,15.6-15.3
			c6.6-3.7,13.8-5.5,21.6-5.5c7.9,0,15.1,1.8,21.6,5.5c6.6,3.7,11.7,8.7,15.5,15.3c3.8,6.5,5.7,13.9,5.7,22c0,8.2-1.9,15.6-5.7,22.1
			c-3.8,6.6-9,11.7-15.5,15.3c-6.5,3.7-13.7,5.5-21.6,5.5C381.5,127.1,374.3,125.3,367.8,121.7z M405.4,101.9c4-4.4,6-10.3,6-17.6
			c0-7.4-2-13.3-6-17.7s-9.4-6.6-16-6.6c-6.8,0-12.1,2.2-16.1,6.6s-6,10.3-6,17.8c0,7.4,2,13.3,6,17.7c4,4.4,9.4,6.6,16.1,6.6
			C396.1,108.6,401.4,106.3,405.4,101.9z"/>
		<path class="st0" d="M502,69.1c-1.5-2.8-3.7-4.9-6.5-6.4s-6.1-2.2-10-2.2c-6.6,0-11.9,2.2-15.8,6.5c-4,4.3-6,10.1-6,17.3
			c0,7.7,2.1,13.7,6.3,18.1c4.2,4.3,9.9,6.5,17.2,6.5c5,0,9.2-1.3,12.7-3.8s6-6.2,7.6-11h-25.9v-15h44.3v19
			c-1.5,5.1-4.1,9.8-7.7,14.2c-3.6,4.4-8.2,7.9-13.8,10.6c-5.6,2.7-11.8,4.1-18.8,4.1c-8.3,0-15.6-1.8-22.1-5.4s-11.5-8.6-15.1-15.1
			c-3.6-6.4-5.4-13.8-5.4-22c0-8.3,1.8-15.6,5.4-22.1s8.6-11.5,15.1-15.1c6.4-3.6,13.8-5.4,22-5.4c10,0,18.5,2.4,25.3,7.3
			c6.9,4.8,11.4,11.6,13.6,20.1H502V69.1z"/>
		<path class="st0" d="M560.7,42.7v83.7h-20.4V42.7H560.7z"/>
		<path class="st0" d="M629.7,126.3l-17-25.6l-15,25.6h-23.1l26.8-42.5L574,42.7h23.7L614.5,68l14.7-25.3h23.1l-26.6,42.2l27.6,41.5
			h-23.6V126.3z"/>
		<path class="st0" d="M687,59v16.9h27.3v15.7H687V110h30.9v16.3h-51.2V42.7h51.2V59C717.9,59,687,59,687,59z"/>
		<path class="st0" d="M754.4,110.6h26.7v15.7H734V42.7h20.4L754.4,110.6L754.4,110.6z"/>
	</g>
	<g>
		<g class="st1">
			<path class="st0" d="M348,156.9c6.6,3.3,11.6,8.1,15.1,14.4c3.5,6.3,5.2,13.7,5.2,22.4c0,8.6-1.7,16-5.2,22.2
				c-3.5,6.2-8.5,11-15.1,14.3c-6.6,3.3-14.5,4.9-23.7,4.9h-24.7v-83.3h24.7C333.5,151.9,341.4,153.6,348,156.9z M350.8,219.2
				c6.1-6.1,9.1-14.6,9.1-25.4c0-11-3-19.5-9.1-25.7c-6.1-6.2-14.9-9.2-26.5-9.2h-16.3v69.5h16.3
				C335.8,228.3,344.7,225.2,350.8,219.2z"/>
			<path class="st0" d="M394,158.7v31.1h31.6v6.9H394v31.6h35.2v6.9h-43.5v-83.4h43.5v6.9H394z"/>
			<path class="st0" d="M458.3,233.2c-4.2-1.9-7.4-4.6-9.8-8c-2.4-3.4-3.7-7.2-3.8-11.4h8.8c0.4,4.1,2.2,7.6,5.4,10.7
				c3.2,3.1,7.8,4.6,13.9,4.6c5.6,0,10.1-1.4,13.4-4.3c3.3-2.9,4.9-6.6,4.9-11c0-3.6-0.9-6.5-2.7-8.6c-1.8-2.2-4.1-3.8-6.8-4.9
				c-2.7-1.1-6.4-2.2-11.2-3.5c-5.6-1.5-10-3-13.2-4.4c-3.3-1.4-6-3.7-8.3-6.7c-2.3-3-3.5-7.1-3.5-12.3c0-4.3,1.1-8.1,3.3-11.5
				c2.2-3.4,5.4-6,9.4-7.9c4.1-1.9,8.7-2.9,13.9-2.9c7.7,0,13.9,1.9,18.6,5.7c4.7,3.8,7.4,8.6,8.2,14.6h-9.1
				c-0.6-3.4-2.4-6.5-5.6-9.1c-3.2-2.7-7.5-4-12.9-4c-5,0-9.2,1.3-12.5,4c-3.3,2.7-5,6.3-5,10.9c0,3.5,0.9,6.3,2.7,8.5
				c1.8,2.1,4.1,3.8,6.9,4.9c2.7,1.1,6.5,2.3,11.1,3.6c5.4,1.5,9.8,3,13.1,4.5c3.3,1.5,6.2,3.7,8.5,6.7c2.3,3,3.5,7.1,3.5,12.2
				c0,3.9-1,7.6-3.1,11.1c-2.1,3.5-5.1,6.3-9.2,8.5c-4.1,2.1-8.9,3.2-14.5,3.2C467.2,236,462.4,235.1,458.3,233.2z"/>
			<path class="st0" d="M525.9,151.9v83.3h-8.3v-83.3H525.9z"/>
			<path class="st0" d="M612.3,176.2c-2.4-5.5-6-9.8-10.9-12.9c-4.9-3.1-10.6-4.7-17.2-4.7c-6.2,0-11.8,1.4-16.7,4.3
				c-4.9,2.9-8.8,6.9-11.7,12.2c-2.9,5.3-4.3,11.4-4.3,18.4c0,7,1.4,13.1,4.3,18.5c2.9,5.3,6.8,9.4,11.7,12.3
				c4.9,2.9,10.5,4.3,16.7,4.3c5.8,0,11-1.3,15.7-3.8c4.6-2.5,8.4-6.1,11.2-10.7c2.8-4.6,4.4-10.1,4.8-16.3h-35V191h43.9v6.1
				c-0.4,7.3-2.4,13.9-6,19.8c-3.6,5.9-8.4,10.6-14.4,14c-6,3.4-12.7,5.1-20.2,5.1c-7.7,0-14.7-1.8-21-5.4
				c-6.3-3.6-11.2-8.7-14.8-15.1c-3.6-6.5-5.4-13.8-5.4-22c0-8.2,1.8-15.5,5.4-22c3.6-6.5,8.6-11.5,14.8-15.1
				c6.3-3.6,13.3-5.4,21-5.4c8.9,0,16.7,2.2,23.4,6.7c6.7,4.5,11.5,10.6,14.5,18.6H612.3z"/>
			<path class="st0" d="M704.6,235.2h-8.3l-46.1-70.1v70.1h-8.3v-83.3h8.3l46.1,70v-70h8.3V235.2z"/>
			<path class="st0" d="M733.8,158.7v31.1h31.6v6.9h-31.6v31.6H769v6.9h-43.5v-83.4H769v6.9H733.8z"/>
			<path class="st0" d="M831.7,235.2l-20.6-34.8h-15.4v34.8h-8.3v-83.3h25c9.3,0,16.3,2.2,21.2,6.7c4.8,4.5,7.2,10.3,7.2,17.5
				c0,6-1.7,11.2-5.2,15.4c-3.5,4.3-8.6,7-15.3,8.3l21.5,35.4H831.7z M795.7,193.6h16.8c6.5,0,11.4-1.6,14.7-4.8
				c3.3-3.2,4.9-7.4,4.9-12.8c0-5.5-1.6-9.7-4.8-12.7c-3.2-3-8.2-4.5-15-4.5h-16.7V193.6z"/>
		</g>
	</g>
</g>
</svg>
